<?xml version="1.0" encoding="UTF-8"?>
<svg xmlns="http://www.w3.org/2000/svg" viewBox="0 0 1121 323" fill="none">
  <g clip-path="url(#a)">
    <path d="M141.757 15.6683L130.006 0L84.8917 0.260055L0.00146484 111.921L19.564 137.732H88.2118L68.6493 111.824L141.757 15.6683Z" fill="#fff"></path>
    <path d="M70.4082 208.142L82.1587 223.81L134.434 223.55L219.324 111.889L199.762 86.0784H123.985L143.515 111.986L70.4082 208.142Z" fill="#fff"></path>
    <path d="M296.305 187.402H315.346C316.128 191.27 318.243 194.163 321.661 196.016C325.079 197.902 329.961 198.812 336.309 198.812C342.298 198.812 346.855 198.064 349.98 196.504C353.104 194.976 354.667 192.733 354.667 189.84C354.667 187.597 353.69 185.809 351.737 184.476C349.784 183.144 346.594 182.168 342.102 181.583L328.366 179.633C317.853 178.072 310.204 175.504 305.451 171.994C300.699 168.45 298.323 163.574 298.323 157.301C298.323 150.442 301.61 145.11 308.218 141.275C314.826 137.471 323.907 135.553 335.527 135.553C346.269 135.553 354.569 137.244 360.461 140.657C366.32 144.07 370.095 149.336 371.755 156.455L353.593 158.406C352.226 154.993 350.11 152.555 347.213 151.059C344.316 149.564 340.247 148.816 335.007 148.816C329.31 148.816 324.916 149.499 321.824 150.864C318.732 152.229 317.169 154.212 317.169 156.78C317.169 159.088 318.081 160.811 319.936 161.982C321.791 163.152 325.111 164.062 329.929 164.745L346.139 167.183C355.806 168.613 362.837 171.083 367.231 174.627C371.625 178.17 373.839 183.078 373.839 189.417C373.839 196.764 370.616 202.355 364.204 206.256C357.792 210.124 348.45 212.075 336.211 212.075C311.408 212.075 298.127 203.85 296.305 187.402Z" fill="#fff"></path>
    <path d="M542.382 181.128C547.004 179.308 550.487 176.772 552.863 173.522C555.239 170.304 556.444 166.143 556.444 161.039C556.444 145.468 545.442 137.699 523.47 137.699H484.964V210.515H503.029V184.607H524.545L540.657 210.515H561.424L542.382 181.128ZM534.049 168.743C531.445 170.336 527.474 171.149 522.168 171.149H503.029V151.157H522.396C527.865 151.157 531.836 151.905 534.277 153.4C536.718 154.895 537.955 157.431 537.955 161.039C537.955 164.647 536.653 167.15 534.049 168.743Z" fill="#fff"></path>
    <path d="M719.779 137.667H697.938L663.109 210.482H682.672L689.475 194.977H727.33L734.459 210.482H754.575L719.746 137.667H719.779ZM695.431 181.324L708.517 152.035L721.699 181.324H695.431Z" fill="#fff"></path>
    <path d="M911.107 137.667H892.065V210.482H911.107V137.667Z" fill="#fff"></path>
    <path d="M1120.01 202.323C1115.03 205.509 1109.3 207.979 1102.83 209.702C1096.35 211.425 1089.48 212.303 1082.29 212.303C1072.49 212.303 1064.09 210.807 1057.16 207.817C1050.19 204.826 1044.85 200.503 1041.14 194.814C1037.43 189.125 1035.58 182.331 1035.58 174.367C1035.58 166.403 1037.47 159.154 1041.21 153.465C1044.95 147.744 1050.19 143.388 1056.9 140.365C1063.6 137.342 1071.35 135.814 1080.14 135.814C1091.11 135.814 1099.73 137.927 1106.05 142.185C1112.36 146.444 1116.53 151.937 1118.55 158.666L1099.51 160.617C1098.07 157.008 1095.73 154.375 1092.54 152.718C1089.32 151.06 1085.05 150.215 1079.71 150.215C1071.64 150.215 1065.52 152.295 1061.32 156.488C1057.13 160.682 1055.04 166.533 1055.04 174.075C1055.04 190.003 1064.09 197.935 1082.19 197.935C1090.2 197.935 1096.93 196.829 1102.4 194.554V183.339H1082.19V170.076H1120.04V202.29L1120.01 202.323Z" fill="#fff"></path>
    <path d="M467.322 137.667H388.812V152.458H418.53V210.515H423.445H437.571V152.458H467.322V146.411V137.667Z" fill="#fff"></path>
    <path d="M599.93 196.829V180.088H641.854V166.533H599.93V151.352H646.639V137.667H581.116V210.515H588.114H646.639V196.829H599.93Z" fill="#fff"></path>
    <path d="M860.132 137.667H845.712L819.542 191.206L793.274 137.667H771.303V210.515H788.717V162.47L811.86 210.515H826.248L849.391 162.372V210.515H867.13V137.667H860.132Z" fill="#fff"></path>
    <path d="M996.161 137.667V186.33L953.227 137.667H936.041V210.515H943.332H954.204V161.755L997.137 210.515H1014.32V137.667H996.161Z" fill="#fff"></path>
    <path d="M417.031 82.8275L373.089 14.238H365.96V89.6215H370.973V19.8942L415.762 89.6215H422.174V14.238H417.031V82.8275Z" fill="#fff"></path>
    <path d="M488.381 77.1713C483.076 82.6 476.468 84.9405 465.792 84.9405H447.564V18.724H466.215C475.654 18.724 482.75 21.357 487.893 26.5906C493.557 32.2143 496.812 41.8364 496.812 52.8237C496.812 62.9658 493.85 71.5476 488.414 77.1713M468.396 14.238H442.421V89.5889H465.141C477.51 89.5889 485.452 86.8909 491.832 80.7146C498.537 74.1482 501.987 64.9487 501.987 53.3438C501.987 29.5163 488.805 14.238 468.363 14.238" fill="#fff"></path>
    <path d="M604.258 14.531L572.945 89.9469H577.99L586.648 69.24H618.222L619.752 64.7541H588.569L607.285 19.6671L636.482 89.9469H641.43L610.215 14.531H604.258Z" fill="#fff"></path>
    <path d="M671.345 84.8108L642.147 14.531H637.2L668.415 89.9144H674.372L705.685 14.531H700.672L671.345 84.8108Z" fill="#fff"></path>
    <path d="M742.758 87.5086C726.613 87.5086 715.221 72.8806 715.221 52.0762C715.221 31.2718 726.19 17.0338 742.758 17.0338C760.139 17.0338 771.239 31.1417 771.239 53.1164C771.239 61.6982 767.235 87.5086 742.758 87.5086ZM743.181 12.3528C723.618 12.3528 709.882 28.8663 709.882 52.2062C709.882 75.5461 723.781 92.1246 743.181 92.1246C762.581 92.1246 776.48 75.6436 776.48 52.7913C776.48 29.939 762.776 12.3528 743.181 12.3528Z" fill="#fff"></path>
    <path d="M818.436 49.0529H795.195V18.5289H820.747C830.675 18.5289 838.226 25.0953 838.226 33.6771C838.226 42.9741 830.382 49.0529 818.436 49.0529ZM827.029 52.5961C832.075 51.1333 833.93 50.1906 836.664 47.8826C841.058 44.2419 843.369 39.3008 843.369 33.7747C843.369 22.1697 834.158 14.238 820.78 14.238H790.118V89.5889H795.228V53.4413H822.114L840.635 89.5889H845.778L827.029 52.5961Z" fill="#fff"></path>
    <path d="M521.157 54.2865H554.456V49.573H521.157V18.9515H559.273L560.836 14.238H516.145V89.5889H561.487V84.908H521.157V54.2865Z" fill="#fff"></path>
    <path d="M311.406 54.2865H344.672V49.573H311.406V18.9515H349.49L351.084 14.238H306.361V89.5889H351.703V84.908H311.406V54.2865Z" fill="#fff"></path>
  </g>
  <path d="M330.06 269.493V265.801H338.006V294.771H330.06V290.767C327.369 294.208 324.241 295.773 319.986 295.773C317.358 295.773 314.793 295.084 312.665 293.77C308.473 291.142 306.033 286.324 306.033 280.631C306.033 271.495 312.165 264.8 320.612 264.8C321.738 264.8 322.802 264.925 323.803 265.176C326.306 265.864 327.995 266.99 330.06 269.493ZM322.176 271.495C320.674 271.495 319.485 271.808 318.422 272.496C316.044 273.998 314.542 277.127 314.542 280.505C314.542 285.574 317.858 289.39 322.238 289.39C326.681 289.39 330.185 285.261 330.185 280.005C330.185 275.124 326.806 271.495 322.176 271.495ZM437.883 284.76H446.58C445.141 287.764 443.89 289.265 441.7 290.955C438.258 293.458 433.691 294.771 428.122 294.771C421.114 294.771 415.733 292.832 412.229 288.952C409.664 286.199 408.224 282.32 408.224 278.378C408.224 276.939 408.412 275.5 408.788 274.061C410.852 266.427 417.923 261.985 427.997 261.985C440.073 261.985 447.894 268.429 447.894 278.378V279.129C447.894 279.504 447.706 280.631 447.644 281.256H416.609C418.423 286.137 421.677 288.076 428.122 288.076C432.502 288.076 435.13 287.2 437.883 284.76ZM416.984 274.561H438.008C437.257 270.932 433.19 268.68 427.371 268.68C425.869 268.68 424.43 268.867 423.116 269.243C420.238 269.994 418.298 271.683 416.984 274.561ZM395.835 267.053V256.166L405.284 253.1V293.958H396.148V289.328C392.206 293.02 388.014 294.771 382.946 294.771C373.185 294.771 365.239 287.388 365.239 278.315C365.239 269.243 373.185 261.922 382.946 261.922C387.889 261.922 392.019 263.549 395.835 267.053ZM385.073 269.243C383.885 269.243 382.946 269.368 381.882 269.681C377.377 270.87 374.311 274.436 374.311 278.441C374.311 279.88 374.687 281.256 375.437 282.508C377.252 285.636 381.006 287.638 385.011 287.638C386.2 287.638 387.201 287.513 388.264 287.2C392.77 286.074 395.835 282.445 395.835 278.441C395.835 277.001 395.46 275.625 394.709 274.374C392.895 271.245 389.14 269.243 385.073 269.243ZM450.772 294.146V256.353L460.471 253.1V294.146H450.772ZM527.484 286.262V293.52C525.794 294.459 524.731 294.771 523.166 294.771C522.416 294.771 521.727 294.646 521.102 294.459C519.412 293.895 518.223 292.769 517.034 290.579C512.592 293.52 508.275 294.771 502.268 294.771C499.014 294.771 495.948 294.396 493.007 293.708C487.751 292.394 484.873 289.14 484.873 284.447C484.873 282.946 485.249 281.507 485.937 280.255C488.44 276 494.634 273.56 502.643 273.56C508.275 273.56 512.905 274.686 516.972 277.064C516.784 274.499 515.846 272.997 513.718 271.746C511.215 270.181 507.086 269.368 502.143 269.368C500.078 269.368 498.201 269.493 496.449 269.806C493.445 270.244 490.067 271.308 488.627 272.309C488.377 271.996 488.315 271.808 487.814 270.932L486.876 269.368C485.937 267.866 485.374 266.865 485.124 266.364L484.873 265.864C484.811 265.864 484.811 265.801 484.811 265.801V265.739C484.811 265.739 484.811 265.676 484.873 265.676C485.687 265.051 485.687 265.051 491.318 263.173C493.508 262.423 498.013 261.922 502.143 261.922C516.346 261.922 524.418 267.616 524.418 277.69V284.322C524.418 285.574 525.106 286.387 526.17 286.387L527.484 286.262ZM516.158 285.073V283.133C513.656 281.131 508.963 279.817 504.02 279.817C502.581 279.817 501.267 279.88 500.078 280.067C496.198 280.631 494.697 281.757 494.697 284.135C494.697 284.823 494.822 285.386 495.135 285.886C496.073 287.513 499.139 288.389 504.02 288.389C505.396 288.389 506.585 288.327 507.774 288.139C511.215 287.701 514.344 286.575 516.158 285.073ZM599.69 284.76H608.387C607.011 287.701 605.822 289.203 603.507 290.955C600.065 293.458 595.498 294.771 589.929 294.771C577.79 294.771 570.032 288.327 570.032 278.378C570.032 268.429 577.79 261.985 589.866 261.985C601.88 261.985 609.701 268.429 609.701 278.378V279.066L609.639 279.817C609.576 280.693 609.576 280.693 609.451 281.256H578.479C580.418 286.199 583.547 288.076 589.992 288.076C594.372 288.076 597 287.138 599.69 284.76ZM578.792 274.561H599.878C599.064 270.932 595.06 268.68 589.241 268.68C587.739 268.68 586.3 268.867 584.923 269.243C582.108 269.994 580.168 271.683 578.792 274.561ZM556.829 262.735V266.49C560.834 263.236 564.525 261.985 569.844 261.985V269.43C568.843 269.18 567.842 269.118 566.778 269.118C561.021 269.118 556.141 273.31 556.141 278.253V278.315V294.146H547.068V262.735H556.829ZM539.435 253.1V262.735H544.253V268.554H539.435V283.884C539.435 285.949 540.06 286.762 541.5 286.762C542.751 286.762 543.564 286.575 544.253 286.199V292.957C543.314 294.083 541.5 294.709 538.997 294.709C532.802 294.709 530.112 291.518 530.112 284.197V268.492H525.607V262.673H530.112V256.166L539.435 253.1ZM476.551 253.1V262.735H481.369V268.554H476.551V283.884C476.551 285.949 477.177 286.762 478.616 286.762C479.868 286.762 480.681 286.575 481.369 286.199V292.957C480.431 294.083 478.616 294.709 476.113 294.709C469.919 294.709 467.228 291.518 467.228 284.197V268.492H462.723V262.673H467.228V256.166L476.551 253.1ZM656.542 286.262L661.36 291.455C658.044 294.459 654.602 295.773 650.223 295.773C641.4 295.773 634.893 289.265 634.893 280.443C634.893 271.308 641.275 264.8 650.285 264.8C651.787 264.8 653.163 264.988 654.415 265.301C657.043 266.052 659.358 267.366 661.861 269.618L656.542 274.436C654.79 272.684 652.913 271.871 650.598 271.871C649.221 271.871 647.907 272.246 646.781 272.934C644.403 274.311 642.964 277.064 642.964 280.193C642.964 281.757 643.34 283.259 644.028 284.572C645.342 287.138 647.907 288.702 650.911 288.702C651.474 288.702 651.975 288.64 652.475 288.514C653.914 288.264 654.978 287.638 656.542 286.262ZM679.198 264.8C682.201 264.8 684.891 265.489 687.207 266.802C692.15 269.618 694.903 274.561 694.903 280.568C694.903 289.078 687.957 295.773 679.072 295.773C675.881 295.773 672.815 294.959 670.25 293.332C665.87 290.642 663.367 285.949 663.367 280.318C663.367 277.377 664.055 274.624 665.369 272.246C667.935 267.553 673.128 264.8 679.198 264.8ZM679.198 271.933C677.696 271.933 676.507 272.246 675.318 272.872C672.753 274.248 671.376 276.876 671.376 280.318C671.376 285.261 674.567 288.64 679.198 288.64C683.828 288.64 686.894 285.198 686.894 280.067C686.894 278.691 686.643 277.439 686.143 276.251C685.017 273.623 682.326 271.933 679.198 271.933ZM700.807 265.801H708.753V269.43C710.568 266.239 713.008 264.8 716.7 264.8C720.454 264.8 723.207 266.49 724.584 269.618C726.523 266.302 729.214 264.8 733.343 264.8C736.284 264.8 738.725 265.739 740.351 267.491C742.103 269.43 742.666 271.433 742.666 275.813V294.771H734.72V277.314C734.72 273.372 733.281 271.495 730.278 271.495C727.337 271.495 725.647 273.623 725.647 277.314V294.771H717.701V277.565C717.701 273.56 716.199 271.495 713.321 271.495C710.318 271.495 708.753 273.56 708.753 277.565V294.771H700.807V265.801ZM750.24 265.801H758.186V269.368C760.564 266.177 763.38 264.8 767.697 264.8C769.199 264.8 770.7 264.988 772.014 265.426C774.768 266.239 777.458 268.116 779.335 270.557C781.4 273.185 782.339 276.376 782.339 280.38C782.339 289.641 776.582 295.773 767.885 295.773C763.693 295.773 760.627 294.459 758.186 291.643V307.724H750.24V265.801ZM766.07 271.495C764.381 271.495 762.879 271.996 761.628 272.934C759.375 274.624 758.186 277.314 758.186 280.631C758.186 285.949 761.252 289.39 765.945 289.39C770.638 289.39 773.829 285.699 773.829 280.318C773.829 275.187 770.575 271.495 766.07 271.495ZM810.581 269.493V265.801H818.528V294.771H810.581V290.767C807.891 294.208 804.762 295.773 800.507 295.773C797.88 295.773 795.314 295.084 793.187 293.77C788.995 291.142 786.554 286.324 786.554 280.631C786.554 271.495 792.686 264.8 801.133 264.8C802.259 264.8 803.323 264.925 804.324 265.176C806.827 265.864 808.517 266.99 810.581 269.493ZM802.697 271.495C801.196 271.495 800.007 271.808 798.943 272.496C796.566 273.998 795.064 277.127 795.064 280.505C795.064 285.574 798.38 289.39 802.76 289.39C807.203 289.39 810.706 285.261 810.706 280.005C810.706 275.124 807.328 271.495 802.697 271.495ZM826.375 265.801H834.322V269.368C836.449 266.052 838.577 264.8 842.206 264.8C844.959 264.8 847.587 265.801 849.339 267.491C851.216 269.368 851.904 271.683 851.904 276.438V294.771H843.958V276.814C843.958 275.187 843.77 274.248 843.269 273.435C842.519 272.246 841.017 271.495 839.453 271.495C836.387 271.495 834.322 273.81 834.322 277.189V294.771H826.375V265.801ZM869.267 283.008L876.024 265.801H884.471L868.14 307.974H859.631L865.074 294.083L854.938 265.801H863.385L869.267 283.008Z" fill="#fff"></path>
  <defs>
    <clipPath id="a">
      <rect width="1120.01" height="223.81" fill="#fff" transform="translate(0.000976562)"></rect>
    </clipPath>
  </defs>
</svg>
